<svg xmlns="http://www.w3.org/2000/svg" xmlns:xlink="http://www.w3.org/1999/xlink" width="300" zoomAndPan="magnify" viewBox="0 0 224.87999 54" height="72" preserveAspectRatio="xMidYMid meet" version="1.0"><defs><g/><clipPath id="fb51b1b8c4"><path d="M 29 5.300781 L 44 5.300781 L 44 48 L 29 48 Z M 29 5.300781 " clip-rule="nonzero"/></clipPath><clipPath id="b5856f5d09"><path d="M 7.289062 10 L 66 10 L 66 48 L 7.289062 48 Z M 7.289062 10 " clip-rule="nonzero"/></clipPath></defs><g clip-path="url(#fb51b1b8c4)"><path fill="#a60202" d="M 38.460938 10.800781 L 43.882812 10.800781 L 43.882812 14.609375 L 38.460938 14.609375 L 38.460938 21.890625 C 38.140625 21.546875 37.734375 21.273438 37.253906 21.101562 C 36.46875 20.8125 35.566406 20.828125 34.804688 21.195312 C 34.765625 21.214844 34.726562 21.234375 34.6875 21.253906 L 34.6875 14.609375 L 29.269531 14.609375 L 29.269531 10.800781 L 34.6875 10.800781 L 34.6875 5.296875 L 38.460938 5.296875 Z M 38.460938 46.136719 L 38.460938 47.714844 L 34.6875 47.714844 L 34.6875 43.539062 C 35.804688 44.570312 37.085938 45.445312 38.460938 46.136719 " fill-opacity="1" fill-rule="evenodd"/></g><g clip-path="url(#b5856f5d09)"><path fill="#111111" d="M 62.953125 27.984375 C 62.949219 27.972656 62.949219 27.957031 62.945312 27.941406 C 62.789062 26.738281 62.738281 25.511719 62.722656 24.292969 C 62.707031 23.09375 62.726562 21.894531 62.714844 20.691406 C 62.710938 20.105469 62.699219 19.5 62.664062 18.902344 C 61.476562 19.554688 60.007812 19.835938 58.730469 20.011719 L 58.730469 15.984375 C 60.109375 15.5625 61.574219 14.925781 62.507812 13.824219 C 63.074219 13.160156 63.398438 12.386719 63.535156 11.527344 C 63.59375 11.179688 63.875 10.925781 64.226562 10.910156 C 64.574219 10.894531 64.878906 11.121094 64.964844 11.460938 C 65.261719 12.601562 65.289062 14.007812 65.285156 15.183594 C 65.28125 16.757812 65.183594 18.339844 65.0625 19.910156 C 64.949219 21.421875 64.804688 22.9375 64.667969 24.449219 C 64.5625 25.582031 64.449219 26.738281 64.402344 27.875 C 64.398438 28.003906 64.359375 28.125 64.296875 28.230469 C 64.761719 30.0625 64.75 31.984375 63.632812 33.589844 C 63.589844 33.652344 63.542969 33.71875 63.496094 33.78125 C 63.664062 33.902344 63.777344 34.09375 63.792969 34.320312 C 63.890625 35.550781 63.660156 36.746094 62.902344 37.742188 C 61.910156 39.039062 60.277344 39.652344 58.730469 39.972656 L 58.730469 36.613281 C 59.222656 36.476562 59.695312 36.3125 60.132812 36.113281 C 59.679688 36.292969 59.210938 36.449219 58.730469 36.585938 L 58.730469 32.78125 C 59.980469 32.253906 61.101562 31.550781 61.851562 30.585938 C 62.390625 29.898438 62.714844 29.117188 62.855469 28.253906 C 62.871094 28.15625 62.90625 28.066406 62.953125 27.984375 Z M 58.730469 20.011719 L 58.617188 20.027344 C 56.382812 20.328125 54.121094 20.414062 51.882812 20.707031 C 46.449219 21.417969 42.261719 23.1875 41.296875 29.214844 C 41.238281 29.589844 40.910156 29.855469 40.535156 29.835938 C 40.503906 29.832031 40.472656 29.828125 40.441406 29.824219 C 40.308594 29.882812 40.160156 29.90625 40.007812 29.878906 C 38.921875 29.6875 37.773438 29.820312 36.800781 30.371094 C 35.363281 31.1875 34.691406 32.664062 34.597656 34.28125 C 34.449219 36.792969 35.472656 39.441406 36.984375 41.398438 C 39.289062 44.378906 42.691406 45.953125 46.332031 46.527344 C 46.710938 46.589844 46.976562 46.929688 46.945312 47.3125 C 46.917969 47.699219 46.605469 47.992188 46.222656 47.996094 C 44.582031 48.003906 42.941406 47.753906 41.371094 47.289062 C 35.457031 45.542969 30.285156 40.589844 30.46875 34.027344 C 30.488281 33.269531 30.59375 32.523438 30.757812 31.785156 C 30.933594 31.019531 31.167969 30.269531 31.421875 29.527344 C 31.359375 29.4375 31.316406 29.332031 31.296875 29.214844 C 30.878906 26.601562 29.796875 24.398438 27.582031 22.898438 C 25.589844 21.550781 23.054688 21.011719 20.710938 20.707031 C 18.472656 20.414062 16.210938 20.328125 13.976562 20.027344 L 13.863281 20.011719 L 13.863281 15.984375 C 14.019531 16.035156 14.175781 16.078125 14.328125 16.121094 C 16.347656 16.6875 18.488281 16.984375 20.550781 17.359375 C 23.757812 17.9375 27.511719 18.738281 29.972656 21.035156 C 31.488281 22.445312 32.28125 24.195312 32.601562 26.101562 C 32.71875 25.703125 32.832031 25.304688 32.929688 24.898438 C 32.972656 24.726562 33.082031 24.242188 32.972656 24.074219 C 32.878906 23.933594 32.53125 23.78125 32.382812 23.714844 C 32.132812 23.609375 31.976562 23.394531 31.941406 23.125 C 31.910156 22.855469 32.015625 22.609375 32.230469 22.449219 C 32.835938 21.988281 33.402344 21.742188 34.125 21.664062 C 34.328125 21.472656 34.554688 21.316406 34.804688 21.195312 C 35.566406 20.828125 36.46875 20.8125 37.253906 21.101562 C 38.46875 21.542969 39.246094 22.613281 39.246094 23.925781 C 39.246094 24.949219 39.4375 26.179688 39.859375 27.242188 C 40.027344 24.898438 40.808594 22.722656 42.617188 21.035156 C 45.082031 18.738281 48.835938 17.9375 52.042969 17.359375 C 54.109375 16.984375 56.246094 16.6875 58.265625 16.121094 C 58.417969 16.078125 58.574219 16.035156 58.730469 15.984375 Z M 13.863281 32.78125 L 13.863281 36.585938 C 14.324219 36.71875 14.792969 36.832031 15.261719 36.929688 C 14.789062 36.84375 14.316406 36.738281 13.863281 36.613281 L 13.863281 39.972656 L 14.035156 40.007812 C 15.914062 40.378906 17.9375 40.417969 19.847656 40.398438 C 20.988281 40.386719 22.125 40.347656 23.265625 40.320312 C 24.269531 40.292969 25.28125 40.269531 26.285156 40.296875 C 26.867188 40.3125 29.003906 40.398438 29.359375 40.96875 C 29.542969 41.261719 29.890625 41.386719 30.214844 41.277344 C 30.539062 41.164062 30.738281 40.855469 30.710938 40.511719 C 30.683594 40.246094 30.621094 39.996094 30.515625 39.757812 C 30.570312 39.667969 30.609375 39.5625 30.621094 39.453125 C 30.691406 38.882812 30.625 38.320312 30.375 37.804688 C 29.625 36.253906 27.480469 35.65625 25.949219 35.3125 C 24.875 35.074219 23.785156 34.902344 22.699219 34.738281 C 21.527344 34.5625 20.355469 34.394531 19.1875 34.191406 C 17.601562 33.914062 15.605469 33.519531 13.863281 32.78125 Z M 58.730469 39.972656 L 58.730469 36.613281 C 58.277344 36.738281 57.804688 36.84375 57.332031 36.929688 C 57.800781 36.832031 58.269531 36.71875 58.730469 36.585938 L 58.730469 32.78125 C 56.988281 33.519531 54.992188 33.914062 53.40625 34.191406 C 52.238281 34.394531 51.066406 34.5625 49.894531 34.738281 C 48.808594 34.902344 47.71875 35.074219 46.648438 35.3125 C 45.113281 35.65625 42.96875 36.253906 42.21875 37.804688 C 41.96875 38.320312 41.902344 38.882812 41.972656 39.453125 C 41.984375 39.5625 42.023438 39.667969 42.082031 39.757812 C 41.972656 39.996094 41.910156 40.246094 41.886719 40.511719 C 41.855469 40.855469 42.054688 41.164062 42.378906 41.277344 C 42.703125 41.386719 43.050781 41.261719 43.234375 40.96875 C 43.589844 40.398438 45.726562 40.3125 46.308594 40.296875 C 47.3125 40.269531 48.324219 40.292969 49.328125 40.320312 C 50.46875 40.347656 51.605469 40.386719 52.746094 40.398438 C 54.65625 40.417969 56.679688 40.378906 58.558594 40.007812 Z M 13.863281 20.011719 C 12.585938 19.835938 11.117188 19.554688 9.929688 18.902344 C 9.894531 19.5 9.882812 20.105469 9.878906 20.691406 C 9.871094 21.894531 9.886719 23.09375 9.871094 24.292969 C 9.855469 25.511719 9.808594 26.738281 9.648438 27.941406 C 9.644531 27.957031 9.644531 27.972656 9.640625 27.984375 C 9.6875 28.066406 9.722656 28.15625 9.738281 28.253906 C 9.878906 29.117188 10.203125 29.898438 10.742188 30.585938 C 11.492188 31.550781 12.613281 32.253906 13.863281 32.78125 L 13.863281 36.585938 C 13.386719 36.449219 12.914062 36.292969 12.460938 36.113281 C 12.898438 36.3125 13.371094 36.476562 13.863281 36.613281 L 13.863281 39.972656 C 12.316406 39.652344 10.683594 39.039062 9.691406 37.742188 C 8.933594 36.746094 8.703125 35.550781 8.800781 34.320312 C 8.820312 34.09375 8.929688 33.902344 9.097656 33.78125 C 9.050781 33.71875 9.003906 33.652344 8.960938 33.589844 C 7.84375 31.984375 7.832031 30.0625 8.296875 28.230469 C 8.234375 28.125 8.199219 28.003906 8.191406 27.875 C 8.144531 26.738281 8.03125 25.582031 7.925781 24.449219 C 7.789062 22.9375 7.644531 21.421875 7.53125 19.910156 C 7.410156 18.339844 7.316406 16.757812 7.308594 15.183594 C 7.304688 14.007812 7.335938 12.601562 7.628906 11.460938 C 7.714844 11.121094 8.019531 10.894531 8.367188 10.910156 C 8.71875 10.925781 9 11.179688 9.058594 11.527344 C 9.199219 12.386719 9.519531 13.160156 10.085938 13.824219 C 11.019531 14.925781 12.484375 15.5625 13.863281 15.984375 L 13.863281 20.011719 " fill-opacity="1" fill-rule="evenodd"/></g><path fill="#a60202" d="M 63.0625 34.378906 C 60.757812 39.519531 48.980469 37.398438 44.414062 38.855469 L 44.414062 39.71875 C 49.675781 38.839844 63.675781 42.03125 63.0625 34.378906 Z M 44.414062 47.160156 L 44.414062 46.886719 C 44.988281 47.03125 45.589844 47.15625 46.21875 47.257812 C 45.617188 47.261719 45.015625 47.226562 44.414062 47.160156 Z M 44.414062 37.953125 L 44.414062 36.792969 C 49.207031 34.523438 62.347656 35.941406 63.578125 28.371094 C 66.171875 38.453125 49.90625 36.058594 44.414062 37.953125 Z M 44.414062 22.417969 L 44.414062 20.582031 C 50.820312 16.523438 63.066406 18.988281 64.257812 11.648438 C 65.132812 15.039062 63.8125 24.351562 63.671875 27.847656 C 63.21875 24.414062 63.660156 20.289062 63.265625 17.554688 C 60.082031 20.746094 50.097656 18.371094 44.414062 22.417969 Z M 44.414062 38.855469 C 43.359375 39.195312 42.691406 39.722656 42.613281 40.578125 C 42.894531 40.128906 43.53125 39.867188 44.414062 39.71875 Z M 44.414062 20.582031 L 44.414062 22.417969 C 42.511719 23.773438 41.09375 25.851562 40.574219 29.097656 C 40.347656 24.671875 41.949219 22.144531 44.414062 20.582031 Z M 44.414062 36.792969 L 44.414062 37.953125 C 43.488281 38.273438 42.867188 38.714844 42.699219 39.359375 C 42.546875 38.144531 43.222656 37.355469 44.414062 36.792969 Z M 44.414062 46.886719 L 44.414062 47.160156 C 38.6875 46.515625 33.15625 42.757812 31.617188 37.375 L 31.617188 31.367188 C 32.148438 29.386719 33.058594 27.460938 33.640625 25.074219 C 33.957031 23.792969 33.585938 23.433594 32.667969 23.039062 C 33.210938 22.628906 33.699219 22.414062 34.460938 22.375 C 35.640625 20.945312 38.511719 21.671875 38.515625 23.925781 C 38.515625 25.746094 39.042969 27.867188 40.132812 29.152344 C 37.078125 28.613281 34.09375 30.410156 33.867188 34.234375 C 33.621094 38.382812 36.382812 44.832031 44.414062 46.886719 Z M 31.617188 27.335938 C 31.78125 27.882812 31.917969 28.46875 32.019531 29.097656 C 32.097656 27.539062 31.949219 26.214844 31.617188 25.085938 Z M 31.617188 25.085938 L 31.617188 27.335938 C 29.832031 21.457031 24.460938 20.324219 19.328125 19.804688 L 19.328125 17.890625 C 24.597656 18.808594 30.082031 19.863281 31.617188 25.085938 Z M 31.617188 31.367188 L 31.617188 37.375 C 31.316406 36.324219 31.167969 35.210938 31.199219 34.046875 C 31.222656 33.113281 31.382812 32.234375 31.617188 31.367188 Z M 19.328125 39.664062 L 19.328125 38.085938 C 24.503906 38.363281 29.757812 38.089844 29.980469 40.578125 C 29.046875 39.078125 24.117188 39.65625 19.328125 39.664062 Z M 19.328125 36.78125 C 24.339844 37.308594 29.359375 37.324219 29.894531 39.359375 C 30.300781 36.113281 24.796875 35.886719 19.328125 34.960938 Z M 19.328125 17.890625 L 19.328125 19.804688 C 15.15625 19.382812 11.140625 19.371094 9.328125 17.554688 C 8.933594 20.289062 9.375 24.414062 8.921875 27.847656 C 8.78125 24.351562 7.464844 15.039062 8.335938 11.648438 C 9.078125 16.214844 14.097656 16.984375 19.328125 17.890625 Z M 19.328125 34.960938 L 19.328125 36.78125 C 13.34375 36.148438 7.367188 34.78125 9.015625 28.371094 C 9.734375 32.792969 14.519531 34.148438 19.328125 34.960938 Z M 19.328125 38.085938 C 15.046875 37.855469 10.816406 37.242188 9.53125 34.378906 C 9.160156 39.019531 14.160156 39.671875 19.328125 39.664062 L 19.328125 38.085938 " fill-opacity="1" fill-rule="nonzero"/><g fill="#d55800" fill-opacity="1"><g transform="translate(71.211093, 23.513934)"><g><path d="M 2.703125 -1.515625 L 6.6875 -1.515625 L 6.6875 0 L 0.8125 0 L 0.8125 -9.125 L 2.703125 -9.125 Z M 2.703125 -1.515625 "/></g></g><g transform="translate(78.162047, 23.513934)"><g><path d="M 4.765625 -0.6875 C 4.316406 -0.144531 3.695312 0.125 2.90625 0.125 C 2.175781 0.125 1.617188 -0.0820312 1.234375 -0.5 C 0.859375 -0.914062 0.664062 -1.53125 0.65625 -2.34375 L 0.65625 -6.78125 L 2.46875 -6.78125 L 2.46875 -2.40625 C 2.46875 -1.695312 2.789062 -1.34375 3.4375 -1.34375 C 4.050781 -1.34375 4.472656 -1.554688 4.703125 -1.984375 L 4.703125 -6.78125 L 6.515625 -6.78125 L 6.515625 0 L 4.8125 0 Z M 4.765625 -0.6875 "/></g></g><g transform="translate(85.344908, 23.513934)"><g><path d="M 2.859375 -8.453125 L 2.859375 -6.78125 L 4.03125 -6.78125 L 4.03125 -5.453125 L 2.859375 -5.453125 L 2.859375 -2.0625 C 2.859375 -1.8125 2.90625 -1.628906 3 -1.515625 C 3.101562 -1.410156 3.289062 -1.359375 3.5625 -1.359375 C 3.757812 -1.359375 3.9375 -1.375 4.09375 -1.40625 L 4.09375 -0.03125 C 3.738281 0.0703125 3.375 0.125 3 0.125 C 1.726562 0.125 1.078125 -0.515625 1.046875 -1.796875 L 1.046875 -5.453125 L 0.0625 -5.453125 L 0.0625 -6.78125 L 1.046875 -6.78125 L 1.046875 -8.453125 Z M 2.859375 -8.453125 "/></g></g><g transform="translate(89.682203, 23.513934)"><g><path d="M 2.46875 -6.046875 C 2.945312 -6.617188 3.550781 -6.90625 4.28125 -6.90625 C 5.75 -6.90625 6.492188 -6.050781 6.515625 -4.34375 L 6.515625 0 L 4.703125 0 L 4.703125 -4.296875 C 4.703125 -4.679688 4.617188 -4.96875 4.453125 -5.15625 C 4.285156 -5.34375 4.007812 -5.4375 3.625 -5.4375 C 3.09375 -5.4375 2.707031 -5.234375 2.46875 -4.828125 L 2.46875 0 L 0.65625 0 L 0.65625 -9.640625 L 2.46875 -9.640625 Z M 2.46875 -6.046875 "/></g></g><g transform="translate(96.865064, 23.513934)"><g><path d="M 3.8125 0.125 C 2.820312 0.125 2.015625 -0.175781 1.390625 -0.78125 C 0.765625 -1.394531 0.453125 -2.210938 0.453125 -3.234375 L 0.453125 -3.40625 C 0.453125 -4.082031 0.582031 -4.691406 0.84375 -5.234375 C 1.101562 -5.773438 1.472656 -6.1875 1.953125 -6.46875 C 2.441406 -6.757812 3 -6.90625 3.625 -6.90625 C 4.550781 -6.90625 5.28125 -6.613281 5.8125 -6.03125 C 6.34375 -5.445312 6.609375 -4.617188 6.609375 -3.546875 L 6.609375 -2.796875 L 2.28125 -2.796875 C 2.34375 -2.359375 2.519531 -2.003906 2.8125 -1.734375 C 3.113281 -1.460938 3.488281 -1.328125 3.9375 -1.328125 C 4.632812 -1.328125 5.179688 -1.582031 5.578125 -2.09375 L 6.46875 -1.09375 C 6.195312 -0.707031 5.828125 -0.40625 5.359375 -0.1875 C 4.898438 0.0195312 4.382812 0.125 3.8125 0.125 Z M 3.609375 -5.4375 C 3.253906 -5.4375 2.960938 -5.316406 2.734375 -5.078125 C 2.515625 -4.835938 2.375 -4.488281 2.3125 -4.03125 L 4.828125 -4.03125 L 4.828125 -4.1875 C 4.816406 -4.582031 4.707031 -4.890625 4.5 -5.109375 C 4.289062 -5.328125 3.992188 -5.4375 3.609375 -5.4375 Z M 3.609375 -5.4375 "/></g></g><g transform="translate(103.803482, 23.513934)"><g><path d="M 4.515625 -5.09375 C 4.265625 -5.125 4.046875 -5.140625 3.859375 -5.140625 C 3.171875 -5.140625 2.722656 -4.90625 2.515625 -4.4375 L 2.515625 0 L 0.703125 0 L 0.703125 -6.78125 L 2.40625 -6.78125 L 2.453125 -5.984375 C 2.816406 -6.597656 3.320312 -6.90625 3.96875 -6.90625 C 4.164062 -6.90625 4.351562 -6.878906 4.53125 -6.828125 Z M 4.515625 -5.09375 "/></g></g><g transform="translate(108.485504, 23.513934)"><g><path d="M 4.625 0 C 4.539062 -0.164062 4.484375 -0.367188 4.453125 -0.609375 C 4.003906 -0.117188 3.429688 0.125 2.734375 0.125 C 2.066406 0.125 1.515625 -0.0664062 1.078125 -0.453125 C 0.640625 -0.835938 0.421875 -1.320312 0.421875 -1.90625 C 0.421875 -2.625 0.6875 -3.175781 1.21875 -3.5625 C 1.757812 -3.945312 2.53125 -4.140625 3.53125 -4.140625 L 4.375 -4.140625 L 4.375 -4.53125 C 4.375 -4.84375 4.289062 -5.09375 4.125 -5.28125 C 3.96875 -5.46875 3.71875 -5.5625 3.375 -5.5625 C 3.0625 -5.5625 2.816406 -5.488281 2.640625 -5.34375 C 2.472656 -5.195312 2.390625 -5 2.390625 -4.75 L 0.578125 -4.75 C 0.578125 -5.144531 0.695312 -5.507812 0.9375 -5.84375 C 1.175781 -6.175781 1.519531 -6.4375 1.96875 -6.625 C 2.414062 -6.8125 2.914062 -6.90625 3.46875 -6.90625 C 4.300781 -6.90625 4.960938 -6.695312 5.453125 -6.28125 C 5.941406 -5.863281 6.1875 -5.273438 6.1875 -4.515625 L 6.1875 -1.5625 C 6.195312 -0.925781 6.285156 -0.441406 6.453125 -0.109375 L 6.453125 0 Z M 3.125 -1.265625 C 3.394531 -1.265625 3.640625 -1.320312 3.859375 -1.4375 C 4.085938 -1.5625 4.257812 -1.722656 4.375 -1.921875 L 4.375 -3.078125 L 3.6875 -3.078125 C 2.78125 -3.078125 2.300781 -2.765625 2.25 -2.140625 L 2.234375 -2.03125 C 2.234375 -1.8125 2.3125 -1.628906 2.46875 -1.484375 C 2.632812 -1.335938 2.851562 -1.265625 3.125 -1.265625 Z M 3.125 -1.265625 "/></g></g><g transform="translate(115.367512, 23.513934)"><g><path d="M 2.359375 -6.78125 L 2.421875 -6 C 2.898438 -6.601562 3.550781 -6.90625 4.375 -6.90625 C 5.09375 -6.90625 5.625 -6.691406 5.96875 -6.265625 C 6.320312 -5.847656 6.503906 -5.222656 6.515625 -4.390625 L 6.515625 0 L 4.703125 0 L 4.703125 -4.34375 C 4.703125 -4.726562 4.617188 -5.003906 4.453125 -5.171875 C 4.285156 -5.347656 4.007812 -5.4375 3.625 -5.4375 C 3.113281 -5.4375 2.726562 -5.21875 2.46875 -4.78125 L 2.46875 0 L 0.65625 0 L 0.65625 -6.78125 Z M 2.359375 -6.78125 "/></g></g><g transform="translate(122.556641, 23.513934)"><g><path d="M 7.984375 -3.046875 C 7.910156 -2.054688 7.546875 -1.28125 6.890625 -0.71875 C 6.234375 -0.15625 5.375 0.125 4.3125 0.125 C 3.132812 0.125 2.210938 -0.265625 1.546875 -1.046875 C 0.878906 -1.835938 0.546875 -2.921875 0.546875 -4.296875 L 0.546875 -4.859375 C 0.546875 -5.734375 0.695312 -6.503906 1 -7.171875 C 1.3125 -7.847656 1.753906 -8.363281 2.328125 -8.71875 C 2.898438 -9.070312 3.566406 -9.25 4.328125 -9.25 C 5.378906 -9.25 6.226562 -8.96875 6.875 -8.40625 C 7.519531 -7.84375 7.894531 -7.050781 8 -6.03125 L 6.109375 -6.03125 C 6.066406 -6.625 5.90625 -7.050781 5.625 -7.3125 C 5.34375 -7.582031 4.910156 -7.71875 4.328125 -7.71875 C 3.703125 -7.71875 3.234375 -7.488281 2.921875 -7.03125 C 2.609375 -6.582031 2.453125 -5.890625 2.453125 -4.953125 L 2.453125 -4.265625 C 2.453125 -3.273438 2.597656 -2.550781 2.890625 -2.09375 C 3.191406 -1.632812 3.664062 -1.40625 4.3125 -1.40625 C 4.894531 -1.40625 5.328125 -1.535156 5.609375 -1.796875 C 5.898438 -2.066406 6.066406 -2.484375 6.109375 -3.046875 Z M 7.984375 -3.046875 "/></g></g><g transform="translate(130.955449, 23.513934)"><g><path d="M 0.40625 -3.453125 C 0.40625 -4.128906 0.535156 -4.726562 0.796875 -5.25 C 1.054688 -5.78125 1.429688 -6.1875 1.921875 -6.46875 C 2.410156 -6.757812 2.976562 -6.90625 3.625 -6.90625 C 4.53125 -6.90625 5.273438 -6.625 5.859375 -6.0625 C 6.441406 -5.507812 6.765625 -4.75 6.828125 -3.78125 L 6.84375 -3.328125 C 6.84375 -2.285156 6.550781 -1.445312 5.96875 -0.8125 C 5.382812 -0.1875 4.601562 0.125 3.625 0.125 C 2.644531 0.125 1.863281 -0.1875 1.28125 -0.8125 C 0.695312 -1.4375 0.40625 -2.289062 0.40625 -3.375 Z M 2.21875 -3.328125 C 2.21875 -2.679688 2.335938 -2.1875 2.578125 -1.84375 C 2.828125 -1.5 3.175781 -1.328125 3.625 -1.328125 C 4.070312 -1.328125 4.414062 -1.492188 4.65625 -1.828125 C 4.90625 -2.171875 5.03125 -2.710938 5.03125 -3.453125 C 5.03125 -4.085938 4.90625 -4.578125 4.65625 -4.921875 C 4.414062 -5.265625 4.070312 -5.4375 3.625 -5.4375 C 3.175781 -5.4375 2.828125 -5.265625 2.578125 -4.921875 C 2.335938 -4.578125 2.21875 -4.046875 2.21875 -3.328125 Z M 2.21875 -3.328125 "/></g></g><g transform="translate(138.213524, 23.513934)"><g><path d="M 2.359375 -6.78125 L 2.421875 -6 C 2.898438 -6.601562 3.550781 -6.90625 4.375 -6.90625 C 5.09375 -6.90625 5.625 -6.691406 5.96875 -6.265625 C 6.320312 -5.847656 6.503906 -5.222656 6.515625 -4.390625 L 6.515625 0 L 4.703125 0 L 4.703125 -4.34375 C 4.703125 -4.726562 4.617188 -5.003906 4.453125 -5.171875 C 4.285156 -5.347656 4.007812 -5.4375 3.625 -5.4375 C 3.113281 -5.4375 2.726562 -5.21875 2.46875 -4.78125 L 2.46875 0 L 0.65625 0 L 0.65625 -6.78125 Z M 2.359375 -6.78125 "/></g></g><g transform="translate(145.402653, 23.513934)"><g><path d="M 1.1875 0 L 1.1875 -5.453125 L 0.1875 -5.453125 L 0.1875 -6.78125 L 1.1875 -6.78125 L 1.1875 -7.359375 C 1.1875 -8.117188 1.40625 -8.707031 1.84375 -9.125 C 2.28125 -9.550781 2.894531 -9.765625 3.6875 -9.765625 C 3.9375 -9.765625 4.242188 -9.722656 4.609375 -9.640625 L 4.578125 -8.234375 C 4.429688 -8.273438 4.25 -8.296875 4.03125 -8.296875 C 3.351562 -8.296875 3.015625 -7.972656 3.015625 -7.328125 L 3.015625 -6.78125 L 4.359375 -6.78125 L 4.359375 -5.453125 L 3.015625 -5.453125 L 3.015625 0 Z M 1.1875 0 "/></g></g><g transform="translate(150.003194, 23.513934)"><g><path d="M 3.8125 0.125 C 2.820312 0.125 2.015625 -0.175781 1.390625 -0.78125 C 0.765625 -1.394531 0.453125 -2.210938 0.453125 -3.234375 L 0.453125 -3.40625 C 0.453125 -4.082031 0.582031 -4.691406 0.84375 -5.234375 C 1.101562 -5.773438 1.472656 -6.1875 1.953125 -6.46875 C 2.441406 -6.757812 3 -6.90625 3.625 -6.90625 C 4.550781 -6.90625 5.28125 -6.613281 5.8125 -6.03125 C 6.34375 -5.445312 6.609375 -4.617188 6.609375 -3.546875 L 6.609375 -2.796875 L 2.28125 -2.796875 C 2.34375 -2.359375 2.519531 -2.003906 2.8125 -1.734375 C 3.113281 -1.460938 3.488281 -1.328125 3.9375 -1.328125 C 4.632812 -1.328125 5.179688 -1.582031 5.578125 -2.09375 L 6.46875 -1.09375 C 6.195312 -0.707031 5.828125 -0.40625 5.359375 -0.1875 C 4.898438 0.0195312 4.382812 0.125 3.8125 0.125 Z M 3.609375 -5.4375 C 3.253906 -5.4375 2.960938 -5.316406 2.734375 -5.078125 C 2.515625 -4.835938 2.375 -4.488281 2.3125 -4.03125 L 4.828125 -4.03125 L 4.828125 -4.1875 C 4.816406 -4.582031 4.707031 -4.890625 4.5 -5.109375 C 4.289062 -5.328125 3.992188 -5.4375 3.609375 -5.4375 Z M 3.609375 -5.4375 "/></g></g><g transform="translate(156.941612, 23.513934)"><g><path d="M 4.375 -1.875 C 4.375 -2.09375 4.265625 -2.265625 4.046875 -2.390625 C 3.828125 -2.523438 3.472656 -2.640625 2.984375 -2.734375 C 1.367188 -3.078125 0.5625 -3.765625 0.5625 -4.796875 C 0.5625 -5.398438 0.8125 -5.898438 1.3125 -6.296875 C 1.8125 -6.703125 2.46875 -6.90625 3.28125 -6.90625 C 4.132812 -6.90625 4.816406 -6.703125 5.328125 -6.296875 C 5.847656 -5.890625 6.109375 -5.363281 6.109375 -4.71875 L 4.296875 -4.71875 C 4.296875 -4.976562 4.210938 -5.191406 4.046875 -5.359375 C 3.878906 -5.535156 3.617188 -5.625 3.265625 -5.625 C 2.960938 -5.625 2.726562 -5.550781 2.5625 -5.40625 C 2.394531 -5.269531 2.3125 -5.097656 2.3125 -4.890625 C 2.3125 -4.679688 2.40625 -4.515625 2.59375 -4.390625 C 2.78125 -4.273438 3.097656 -4.171875 3.546875 -4.078125 C 4.003906 -3.984375 4.390625 -3.882812 4.703125 -3.78125 C 5.660156 -3.425781 6.140625 -2.816406 6.140625 -1.953125 C 6.140625 -1.328125 5.875 -0.820312 5.34375 -0.4375 C 4.8125 -0.0625 4.125 0.125 3.28125 0.125 C 2.707031 0.125 2.203125 0.0234375 1.765625 -0.171875 C 1.328125 -0.378906 0.976562 -0.660156 0.71875 -1.015625 C 0.46875 -1.367188 0.34375 -1.75 0.34375 -2.15625 L 2.0625 -2.15625 C 2.082031 -1.832031 2.203125 -1.582031 2.421875 -1.40625 C 2.648438 -1.238281 2.945312 -1.15625 3.3125 -1.15625 C 3.664062 -1.15625 3.929688 -1.222656 4.109375 -1.359375 C 4.285156 -1.492188 4.375 -1.664062 4.375 -1.875 Z M 4.375 -1.875 "/></g></g><g transform="translate(163.541571, 23.513934)"><g><path d="M 4.375 -1.875 C 4.375 -2.09375 4.265625 -2.265625 4.046875 -2.390625 C 3.828125 -2.523438 3.472656 -2.640625 2.984375 -2.734375 C 1.367188 -3.078125 0.5625 -3.765625 0.5625 -4.796875 C 0.5625 -5.398438 0.8125 -5.898438 1.3125 -6.296875 C 1.8125 -6.703125 2.46875 -6.90625 3.28125 -6.90625 C 4.132812 -6.90625 4.816406 -6.703125 5.328125 -6.296875 C 5.847656 -5.890625 6.109375 -5.363281 6.109375 -4.71875 L 4.296875 -4.71875 C 4.296875 -4.976562 4.210938 -5.191406 4.046875 -5.359375 C 3.878906 -5.535156 3.617188 -5.625 3.265625 -5.625 C 2.960938 -5.625 2.726562 -5.550781 2.5625 -5.40625 C 2.394531 -5.269531 2.3125 -5.097656 2.3125 -4.890625 C 2.3125 -4.679688 2.40625 -4.515625 2.59375 -4.390625 C 2.78125 -4.273438 3.097656 -4.171875 3.546875 -4.078125 C 4.003906 -3.984375 4.390625 -3.882812 4.703125 -3.78125 C 5.660156 -3.425781 6.140625 -2.816406 6.140625 -1.953125 C 6.140625 -1.328125 5.875 -0.820312 5.34375 -0.4375 C 4.8125 -0.0625 4.125 0.125 3.28125 0.125 C 2.707031 0.125 2.203125 0.0234375 1.765625 -0.171875 C 1.328125 -0.378906 0.976562 -0.660156 0.71875 -1.015625 C 0.46875 -1.367188 0.34375 -1.75 0.34375 -2.15625 L 2.0625 -2.15625 C 2.082031 -1.832031 2.203125 -1.582031 2.421875 -1.40625 C 2.648438 -1.238281 2.945312 -1.15625 3.3125 -1.15625 C 3.664062 -1.15625 3.929688 -1.222656 4.109375 -1.359375 C 4.285156 -1.492188 4.375 -1.664062 4.375 -1.875 Z M 4.375 -1.875 "/></g></g><g transform="translate(170.141529, 23.513934)"><g><path d="M 2.609375 0 L 0.796875 0 L 0.796875 -6.78125 L 2.609375 -6.78125 Z M 0.6875 -8.546875 C 0.6875 -8.816406 0.773438 -9.035156 0.953125 -9.203125 C 1.140625 -9.378906 1.390625 -9.46875 1.703125 -9.46875 C 2.003906 -9.46875 2.25 -9.378906 2.4375 -9.203125 C 2.625 -9.035156 2.71875 -8.816406 2.71875 -8.546875 C 2.71875 -8.265625 2.625 -8.035156 2.4375 -7.859375 C 2.25 -7.679688 2 -7.59375 1.6875 -7.59375 C 1.382812 -7.59375 1.140625 -7.679688 0.953125 -7.859375 C 0.773438 -8.035156 0.6875 -8.265625 0.6875 -8.546875 Z M 0.6875 -8.546875 "/></g></g><g transform="translate(173.544927, 23.513934)"><g><path d="M 0.40625 -3.453125 C 0.40625 -4.128906 0.535156 -4.726562 0.796875 -5.25 C 1.054688 -5.78125 1.429688 -6.1875 1.921875 -6.46875 C 2.410156 -6.757812 2.976562 -6.90625 3.625 -6.90625 C 4.53125 -6.90625 5.273438 -6.625 5.859375 -6.0625 C 6.441406 -5.507812 6.765625 -4.75 6.828125 -3.78125 L 6.84375 -3.328125 C 6.84375 -2.285156 6.550781 -1.445312 5.96875 -0.8125 C 5.382812 -0.1875 4.601562 0.125 3.625 0.125 C 2.644531 0.125 1.863281 -0.1875 1.28125 -0.8125 C 0.695312 -1.4375 0.40625 -2.289062 0.40625 -3.375 Z M 2.21875 -3.328125 C 2.21875 -2.679688 2.335938 -2.1875 2.578125 -1.84375 C 2.828125 -1.5 3.175781 -1.328125 3.625 -1.328125 C 4.070312 -1.328125 4.414062 -1.492188 4.65625 -1.828125 C 4.90625 -2.171875 5.03125 -2.710938 5.03125 -3.453125 C 5.03125 -4.085938 4.90625 -4.578125 4.65625 -4.921875 C 4.414062 -5.265625 4.070312 -5.4375 3.625 -5.4375 C 3.175781 -5.4375 2.828125 -5.265625 2.578125 -4.921875 C 2.335938 -4.578125 2.21875 -4.046875 2.21875 -3.328125 Z M 2.21875 -3.328125 "/></g></g><g transform="translate(180.803001, 23.513934)"><g><path d="M 2.359375 -6.78125 L 2.421875 -6 C 2.898438 -6.601562 3.550781 -6.90625 4.375 -6.90625 C 5.09375 -6.90625 5.625 -6.691406 5.96875 -6.265625 C 6.320312 -5.847656 6.503906 -5.222656 6.515625 -4.390625 L 6.515625 0 L 4.703125 0 L 4.703125 -4.34375 C 4.703125 -4.726562 4.617188 -5.003906 4.453125 -5.171875 C 4.285156 -5.347656 4.007812 -5.4375 3.625 -5.4375 C 3.113281 -5.4375 2.726562 -5.21875 2.46875 -4.78125 L 2.46875 0 L 0.65625 0 L 0.65625 -6.78125 Z M 2.359375 -6.78125 "/></g></g><g transform="translate(187.99213, 23.513934)"><g><path d="M 4.375 -1.875 C 4.375 -2.09375 4.265625 -2.265625 4.046875 -2.390625 C 3.828125 -2.523438 3.472656 -2.640625 2.984375 -2.734375 C 1.367188 -3.078125 0.5625 -3.765625 0.5625 -4.796875 C 0.5625 -5.398438 0.8125 -5.898438 1.3125 -6.296875 C 1.8125 -6.703125 2.46875 -6.90625 3.28125 -6.90625 C 4.132812 -6.90625 4.816406 -6.703125 5.328125 -6.296875 C 5.847656 -5.890625 6.109375 -5.363281 6.109375 -4.71875 L 4.296875 -4.71875 C 4.296875 -4.976562 4.210938 -5.191406 4.046875 -5.359375 C 3.878906 -5.535156 3.617188 -5.625 3.265625 -5.625 C 2.960938 -5.625 2.726562 -5.550781 2.5625 -5.40625 C 2.394531 -5.269531 2.3125 -5.097656 2.3125 -4.890625 C 2.3125 -4.679688 2.40625 -4.515625 2.59375 -4.390625 C 2.78125 -4.273438 3.097656 -4.171875 3.546875 -4.078125 C 4.003906 -3.984375 4.390625 -3.882812 4.703125 -3.78125 C 5.660156 -3.425781 6.140625 -2.816406 6.140625 -1.953125 C 6.140625 -1.328125 5.875 -0.820312 5.34375 -0.4375 C 4.8125 -0.0625 4.125 0.125 3.28125 0.125 C 2.707031 0.125 2.203125 0.0234375 1.765625 -0.171875 C 1.328125 -0.378906 0.976562 -0.660156 0.71875 -1.015625 C 0.46875 -1.367188 0.34375 -1.75 0.34375 -2.15625 L 2.0625 -2.15625 C 2.082031 -1.832031 2.203125 -1.582031 2.421875 -1.40625 C 2.648438 -1.238281 2.945312 -1.15625 3.3125 -1.15625 C 3.664062 -1.15625 3.929688 -1.222656 4.109375 -1.359375 C 4.285156 -1.492188 4.375 -1.664062 4.375 -1.875 Z M 4.375 -1.875 "/></g></g><g transform="translate(194.592089, 23.513934)"><g><path d="M 0.796875 -0.890625 C 0.796875 -1.179688 0.890625 -1.414062 1.078125 -1.59375 C 1.273438 -1.769531 1.519531 -1.859375 1.8125 -1.859375 C 2.101562 -1.859375 2.347656 -1.769531 2.546875 -1.59375 C 2.742188 -1.414062 2.84375 -1.179688 2.84375 -0.890625 C 2.84375 -0.609375 2.742188 -0.378906 2.546875 -0.203125 C 2.359375 -0.0234375 2.113281 0.0625 1.8125 0.0625 C 1.507812 0.0625 1.265625 -0.0234375 1.078125 -0.203125 C 0.890625 -0.378906 0.796875 -0.609375 0.796875 -0.890625 Z M 0.796875 -0.890625 "/></g></g><g transform="translate(198.321411, 23.513934)"><g><path d="M 0.40625 -3.453125 C 0.40625 -4.128906 0.535156 -4.726562 0.796875 -5.25 C 1.054688 -5.78125 1.429688 -6.1875 1.921875 -6.46875 C 2.410156 -6.757812 2.976562 -6.90625 3.625 -6.90625 C 4.53125 -6.90625 5.273438 -6.625 5.859375 -6.0625 C 6.441406 -5.507812 6.765625 -4.75 6.828125 -3.78125 L 6.84375 -3.328125 C 6.84375 -2.285156 6.550781 -1.445312 5.96875 -0.8125 C 5.382812 -0.1875 4.601562 0.125 3.625 0.125 C 2.644531 0.125 1.863281 -0.1875 1.28125 -0.8125 C 0.695312 -1.4375 0.40625 -2.289062 0.40625 -3.375 Z M 2.21875 -3.328125 C 2.21875 -2.679688 2.335938 -2.1875 2.578125 -1.84375 C 2.828125 -1.5 3.175781 -1.328125 3.625 -1.328125 C 4.070312 -1.328125 4.414062 -1.492188 4.65625 -1.828125 C 4.90625 -2.171875 5.03125 -2.710938 5.03125 -3.453125 C 5.03125 -4.085938 4.90625 -4.578125 4.65625 -4.921875 C 4.414062 -5.265625 4.070312 -5.4375 3.625 -5.4375 C 3.175781 -5.4375 2.828125 -5.265625 2.578125 -4.921875 C 2.335938 -4.578125 2.21875 -4.046875 2.21875 -3.328125 Z M 2.21875 -3.328125 "/></g></g><g transform="translate(205.579485, 23.513934)"><g><path d="M 4.515625 -5.09375 C 4.265625 -5.125 4.046875 -5.140625 3.859375 -5.140625 C 3.171875 -5.140625 2.722656 -4.90625 2.515625 -4.4375 L 2.515625 0 L 0.703125 0 L 0.703125 -6.78125 L 2.40625 -6.78125 L 2.453125 -5.984375 C 2.816406 -6.597656 3.320312 -6.90625 3.96875 -6.90625 C 4.164062 -6.90625 4.351562 -6.878906 4.53125 -6.828125 Z M 4.515625 -5.09375 "/></g></g><g transform="translate(210.261507, 23.513934)"><g><path d="M 0.4375 -3.4375 C 0.4375 -4.476562 0.679688 -5.316406 1.171875 -5.953125 C 1.671875 -6.585938 2.335938 -6.90625 3.171875 -6.90625 C 3.921875 -6.90625 4.503906 -6.648438 4.921875 -6.140625 L 4.984375 -6.78125 L 6.640625 -6.78125 L 6.640625 -0.21875 C 6.640625 0.375 6.503906 0.890625 6.234375 1.328125 C 5.960938 1.765625 5.582031 2.097656 5.09375 2.328125 C 4.601562 2.554688 4.03125 2.671875 3.375 2.671875 C 2.875 2.671875 2.382812 2.570312 1.90625 2.375 C 1.4375 2.175781 1.082031 1.921875 0.84375 1.609375 L 1.65625 0.5 C 2.101562 1.007812 2.648438 1.265625 3.296875 1.265625 C 3.773438 1.265625 4.144531 1.132812 4.40625 0.875 C 4.675781 0.613281 4.8125 0.25 4.8125 -0.21875 L 4.8125 -0.578125 C 4.394531 -0.109375 3.847656 0.125 3.171875 0.125 C 2.347656 0.125 1.6875 -0.191406 1.1875 -0.828125 C 0.6875 -1.460938 0.4375 -2.3125 0.4375 -3.375 Z M 2.25 -3.3125 C 2.25 -2.695312 2.367188 -2.210938 2.609375 -1.859375 C 2.859375 -1.515625 3.195312 -1.34375 3.625 -1.34375 C 4.175781 -1.34375 4.570312 -1.550781 4.8125 -1.96875 L 4.8125 -4.8125 C 4.570312 -5.226562 4.179688 -5.4375 3.640625 -5.4375 C 3.203125 -5.4375 2.859375 -5.257812 2.609375 -4.90625 C 2.367188 -4.550781 2.25 -4.019531 2.25 -3.3125 Z M 2.25 -3.3125 "/></g></g></g><g fill="#d9d9d9" fill-opacity="1"><g transform="translate(71.211093, 35.052109)"><g><path d="M 4.703125 -1.484375 L 2.109375 -1.484375 L 1.609375 0 L 0.03125 0 L 2.703125 -7.1875 L 4.078125 -7.1875 L 6.765625 0 L 5.203125 0 Z M 2.5 -2.6875 L 4.296875 -2.6875 L 3.390625 -5.375 Z M 2.5 -2.6875 "/></g></g></g><g fill="#d9d9d9" fill-opacity="1"><g transform="translate(78.011021, 35.052109)"><g/></g></g><g fill="#d9d9d9" fill-opacity="1"><g transform="translate(80.527685, 35.052109)"><g><path d="M 6.28125 -2.390625 C 6.226562 -1.617188 5.941406 -1.007812 5.421875 -0.5625 C 4.910156 -0.125 4.234375 0.09375 3.390625 0.09375 C 2.472656 0.09375 1.75 -0.210938 1.21875 -0.828125 C 0.6875 -1.453125 0.421875 -2.304688 0.421875 -3.390625 L 0.421875 -3.828125 C 0.421875 -4.515625 0.539062 -5.117188 0.78125 -5.640625 C 1.03125 -6.171875 1.378906 -6.578125 1.828125 -6.859375 C 2.285156 -7.140625 2.8125 -7.28125 3.40625 -7.28125 C 4.238281 -7.28125 4.90625 -7.054688 5.40625 -6.609375 C 5.914062 -6.171875 6.210938 -5.550781 6.296875 -4.75 L 4.8125 -4.75 C 4.78125 -5.207031 4.648438 -5.539062 4.421875 -5.75 C 4.203125 -5.96875 3.863281 -6.078125 3.40625 -6.078125 C 2.914062 -6.078125 2.546875 -5.898438 2.296875 -5.546875 C 2.054688 -5.191406 1.929688 -4.640625 1.921875 -3.890625 L 1.921875 -3.359375 C 1.921875 -2.578125 2.035156 -2.003906 2.265625 -1.640625 C 2.503906 -1.285156 2.878906 -1.109375 3.390625 -1.109375 C 3.847656 -1.109375 4.1875 -1.210938 4.40625 -1.421875 C 4.632812 -1.628906 4.765625 -1.953125 4.796875 -2.390625 Z M 6.28125 -2.390625 "/></g></g></g><g fill="#d9d9d9" fill-opacity="1"><g transform="translate(87.140097, 35.052109)"><g><path d="M 0.328125 -2.71875 C 0.328125 -3.25 0.425781 -3.722656 0.625 -4.140625 C 0.832031 -4.554688 1.128906 -4.875 1.515625 -5.09375 C 1.898438 -5.320312 2.34375 -5.4375 2.84375 -5.4375 C 3.5625 -5.4375 4.148438 -5.210938 4.609375 -4.765625 C 5.066406 -4.328125 5.320312 -3.734375 5.375 -2.984375 L 5.390625 -2.609375 C 5.390625 -1.796875 5.160156 -1.140625 4.703125 -0.640625 C 4.242188 -0.148438 3.628906 0.09375 2.859375 0.09375 C 2.085938 0.09375 1.472656 -0.148438 1.015625 -0.640625 C 0.554688 -1.128906 0.328125 -1.800781 0.328125 -2.65625 Z M 1.75 -2.609375 C 1.75 -2.109375 1.84375 -1.722656 2.03125 -1.453125 C 2.226562 -1.179688 2.503906 -1.046875 2.859375 -1.046875 C 3.203125 -1.046875 3.46875 -1.175781 3.65625 -1.4375 C 3.851562 -1.707031 3.953125 -2.132812 3.953125 -2.71875 C 3.953125 -3.21875 3.851562 -3.601562 3.65625 -3.875 C 3.46875 -4.144531 3.195312 -4.28125 2.84375 -4.28125 C 2.5 -4.28125 2.226562 -4.144531 2.03125 -3.875 C 1.84375 -3.601562 1.75 -3.179688 1.75 -2.609375 Z M 1.75 -2.609375 "/></g></g></g><g fill="#d9d9d9" fill-opacity="1"><g transform="translate(92.854404, 35.052109)"><g><path d="M 1.859375 -5.34375 L 1.90625 -4.71875 C 2.289062 -5.195312 2.800781 -5.4375 3.4375 -5.4375 C 4.007812 -5.4375 4.429688 -5.269531 4.703125 -4.9375 C 4.984375 -4.601562 5.125 -4.109375 5.125 -3.453125 L 5.125 0 L 3.703125 0 L 3.703125 -3.421875 C 3.703125 -3.722656 3.632812 -3.941406 3.5 -4.078125 C 3.375 -4.210938 3.15625 -4.28125 2.84375 -4.28125 C 2.445312 -4.28125 2.144531 -4.109375 1.9375 -3.765625 L 1.9375 0 L 0.515625 0 L 0.515625 -5.34375 Z M 1.859375 -5.34375 "/></g></g></g><g fill="#d9d9d9" fill-opacity="1"><g transform="translate(98.514437, 35.052109)"><g><path d="M 0.9375 0 L 0.9375 -4.296875 L 0.140625 -4.296875 L 0.140625 -5.34375 L 0.9375 -5.34375 L 0.9375 -5.796875 C 0.9375 -6.390625 1.109375 -6.851562 1.453125 -7.1875 C 1.796875 -7.519531 2.273438 -7.6875 2.890625 -7.6875 C 3.085938 -7.6875 3.332031 -7.65625 3.625 -7.59375 L 3.609375 -6.484375 C 3.492188 -6.515625 3.347656 -6.53125 3.171875 -6.53125 C 2.640625 -6.53125 2.375 -6.273438 2.375 -5.765625 L 2.375 -5.34375 L 3.4375 -5.34375 L 3.4375 -4.296875 L 2.375 -4.296875 L 2.375 0 Z M 0.9375 0 "/></g></g></g><g fill="#d9d9d9" fill-opacity="1"><g transform="translate(102.13646, 35.052109)"><g><path d="M 3 0.09375 C 2.21875 0.09375 1.582031 -0.144531 1.09375 -0.625 C 0.601562 -1.101562 0.359375 -1.742188 0.359375 -2.546875 L 0.359375 -2.6875 C 0.359375 -3.21875 0.460938 -3.691406 0.671875 -4.109375 C 0.878906 -4.535156 1.171875 -4.863281 1.546875 -5.09375 C 1.929688 -5.320312 2.363281 -5.4375 2.84375 -5.4375 C 3.570312 -5.4375 4.144531 -5.207031 4.5625 -4.75 C 4.988281 -4.289062 5.203125 -3.632812 5.203125 -2.78125 L 5.203125 -2.203125 L 1.796875 -2.203125 C 1.847656 -1.859375 1.988281 -1.578125 2.21875 -1.359375 C 2.445312 -1.148438 2.738281 -1.046875 3.09375 -1.046875 C 3.644531 -1.046875 4.078125 -1.25 4.390625 -1.65625 L 5.09375 -0.859375 C 4.875 -0.554688 4.582031 -0.320312 4.21875 -0.15625 C 3.851562 0.0078125 3.445312 0.09375 3 0.09375 Z M 2.84375 -4.28125 C 2.5625 -4.28125 2.332031 -4.1875 2.15625 -4 C 1.976562 -3.8125 1.863281 -3.535156 1.8125 -3.171875 L 3.796875 -3.171875 L 3.796875 -3.296875 C 3.796875 -3.609375 3.710938 -3.847656 3.546875 -4.015625 C 3.378906 -4.191406 3.144531 -4.28125 2.84375 -4.28125 Z M 2.84375 -4.28125 "/></g></g></g><g fill="#d9d9d9" fill-opacity="1"><g transform="translate(107.599107, 35.052109)"><g><path d="M 3.4375 -1.46875 C 3.4375 -1.644531 3.347656 -1.78125 3.171875 -1.875 C 3.003906 -1.976562 2.726562 -2.070312 2.34375 -2.15625 C 1.070312 -2.425781 0.4375 -2.96875 0.4375 -3.78125 C 0.4375 -4.25 0.632812 -4.640625 1.03125 -4.953125 C 1.425781 -5.273438 1.941406 -5.4375 2.578125 -5.4375 C 3.253906 -5.4375 3.796875 -5.273438 4.203125 -4.953125 C 4.609375 -4.640625 4.8125 -4.226562 4.8125 -3.71875 L 3.390625 -3.71875 C 3.390625 -3.914062 3.320312 -4.082031 3.1875 -4.21875 C 3.050781 -4.351562 2.847656 -4.421875 2.578125 -4.421875 C 2.335938 -4.421875 2.148438 -4.363281 2.015625 -4.25 C 1.878906 -4.144531 1.8125 -4.007812 1.8125 -3.84375 C 1.8125 -3.6875 1.882812 -3.554688 2.03125 -3.453125 C 2.1875 -3.359375 2.441406 -3.273438 2.796875 -3.203125 C 3.148438 -3.140625 3.453125 -3.0625 3.703125 -2.96875 C 4.453125 -2.695312 4.828125 -2.21875 4.828125 -1.53125 C 4.828125 -1.039062 4.617188 -0.644531 4.203125 -0.34375 C 3.785156 -0.0507812 3.242188 0.09375 2.578125 0.09375 C 2.128906 0.09375 1.734375 0.015625 1.390625 -0.140625 C 1.046875 -0.296875 0.773438 -0.515625 0.578125 -0.796875 C 0.378906 -1.078125 0.28125 -1.378906 0.28125 -1.703125 L 1.625 -1.703125 C 1.644531 -1.441406 1.738281 -1.242188 1.90625 -1.109375 C 2.082031 -0.972656 2.316406 -0.90625 2.609375 -0.90625 C 2.878906 -0.90625 3.082031 -0.957031 3.21875 -1.0625 C 3.363281 -1.164062 3.4375 -1.300781 3.4375 -1.46875 Z M 3.4375 -1.46875 "/></g></g></g><g fill="#d9d9d9" fill-opacity="1"><g transform="translate(112.795284, 35.052109)"><g><path d="M 3.4375 -1.46875 C 3.4375 -1.644531 3.347656 -1.78125 3.171875 -1.875 C 3.003906 -1.976562 2.726562 -2.070312 2.34375 -2.15625 C 1.070312 -2.425781 0.4375 -2.96875 0.4375 -3.78125 C 0.4375 -4.25 0.632812 -4.640625 1.03125 -4.953125 C 1.425781 -5.273438 1.941406 -5.4375 2.578125 -5.4375 C 3.253906 -5.4375 3.796875 -5.273438 4.203125 -4.953125 C 4.609375 -4.640625 4.8125 -4.226562 4.8125 -3.71875 L 3.390625 -3.71875 C 3.390625 -3.914062 3.320312 -4.082031 3.1875 -4.21875 C 3.050781 -4.351562 2.847656 -4.421875 2.578125 -4.421875 C 2.335938 -4.421875 2.148438 -4.363281 2.015625 -4.25 C 1.878906 -4.144531 1.8125 -4.007812 1.8125 -3.84375 C 1.8125 -3.6875 1.882812 -3.554688 2.03125 -3.453125 C 2.1875 -3.359375 2.441406 -3.273438 2.796875 -3.203125 C 3.148438 -3.140625 3.453125 -3.0625 3.703125 -2.96875 C 4.453125 -2.695312 4.828125 -2.21875 4.828125 -1.53125 C 4.828125 -1.039062 4.617188 -0.644531 4.203125 -0.34375 C 3.785156 -0.0507812 3.242188 0.09375 2.578125 0.09375 C 2.128906 0.09375 1.734375 0.015625 1.390625 -0.140625 C 1.046875 -0.296875 0.773438 -0.515625 0.578125 -0.796875 C 0.378906 -1.078125 0.28125 -1.378906 0.28125 -1.703125 L 1.625 -1.703125 C 1.644531 -1.441406 1.738281 -1.242188 1.90625 -1.109375 C 2.082031 -0.972656 2.316406 -0.90625 2.609375 -0.90625 C 2.878906 -0.90625 3.082031 -0.957031 3.21875 -1.0625 C 3.363281 -1.164062 3.4375 -1.300781 3.4375 -1.46875 Z M 3.4375 -1.46875 "/></g></g></g><g fill="#d9d9d9" fill-opacity="1"><g transform="translate(117.991461, 35.052109)"><g><path d="M 2.046875 0 L 0.625 0 L 0.625 -5.34375 L 2.046875 -5.34375 Z M 0.53125 -6.71875 C 0.53125 -6.9375 0.601562 -7.113281 0.75 -7.25 C 0.894531 -7.382812 1.09375 -7.453125 1.34375 -7.453125 C 1.582031 -7.453125 1.773438 -7.382812 1.921875 -7.25 C 2.066406 -7.113281 2.140625 -6.9375 2.140625 -6.71875 C 2.140625 -6.5 2.066406 -6.320312 1.921875 -6.1875 C 1.773438 -6.050781 1.582031 -5.984375 1.34375 -5.984375 C 1.101562 -5.984375 0.90625 -6.050781 0.75 -6.1875 C 0.601562 -6.320312 0.53125 -6.5 0.53125 -6.71875 Z M 0.53125 -6.71875 "/></g></g></g><g fill="#d9d9d9" fill-opacity="1"><g transform="translate(120.670974, 35.052109)"><g><path d="M 0.328125 -2.71875 C 0.328125 -3.25 0.425781 -3.722656 0.625 -4.140625 C 0.832031 -4.554688 1.128906 -4.875 1.515625 -5.09375 C 1.898438 -5.320312 2.34375 -5.4375 2.84375 -5.4375 C 3.5625 -5.4375 4.148438 -5.210938 4.609375 -4.765625 C 5.066406 -4.328125 5.320312 -3.734375 5.375 -2.984375 L 5.390625 -2.609375 C 5.390625 -1.796875 5.160156 -1.140625 4.703125 -0.640625 C 4.242188 -0.148438 3.628906 0.09375 2.859375 0.09375 C 2.085938 0.09375 1.472656 -0.148438 1.015625 -0.640625 C 0.554688 -1.128906 0.328125 -1.800781 0.328125 -2.65625 Z M 1.75 -2.609375 C 1.75 -2.109375 1.84375 -1.722656 2.03125 -1.453125 C 2.226562 -1.179688 2.503906 -1.046875 2.859375 -1.046875 C 3.203125 -1.046875 3.46875 -1.175781 3.65625 -1.4375 C 3.851562 -1.707031 3.953125 -2.132812 3.953125 -2.71875 C 3.953125 -3.21875 3.851562 -3.601562 3.65625 -3.875 C 3.46875 -4.144531 3.195312 -4.28125 2.84375 -4.28125 C 2.5 -4.28125 2.226562 -4.144531 2.03125 -3.875 C 1.84375 -3.601562 1.75 -3.179688 1.75 -2.609375 Z M 1.75 -2.609375 "/></g></g></g><g fill="#d9d9d9" fill-opacity="1"><g transform="translate(126.385282, 35.052109)"><g><path d="M 1.859375 -5.34375 L 1.90625 -4.71875 C 2.289062 -5.195312 2.800781 -5.4375 3.4375 -5.4375 C 4.007812 -5.4375 4.429688 -5.269531 4.703125 -4.9375 C 4.984375 -4.601562 5.125 -4.109375 5.125 -3.453125 L 5.125 0 L 3.703125 0 L 3.703125 -3.421875 C 3.703125 -3.722656 3.632812 -3.941406 3.5 -4.078125 C 3.375 -4.210938 3.15625 -4.28125 2.84375 -4.28125 C 2.445312 -4.28125 2.144531 -4.109375 1.9375 -3.765625 L 1.9375 0 L 0.515625 0 L 0.515625 -5.34375 Z M 1.859375 -5.34375 "/></g></g></g><g fill="#d9d9d9" fill-opacity="1"><g transform="translate(132.045315, 35.052109)"><g><path d="M 3.640625 0 C 3.578125 -0.125 3.53125 -0.285156 3.5 -0.484375 C 3.15625 -0.0976562 2.707031 0.09375 2.15625 0.09375 C 1.632812 0.09375 1.195312 -0.0546875 0.84375 -0.359375 C 0.5 -0.660156 0.328125 -1.039062 0.328125 -1.5 C 0.328125 -2.0625 0.535156 -2.492188 0.953125 -2.796875 C 1.378906 -3.109375 1.988281 -3.265625 2.78125 -3.265625 L 3.4375 -3.265625 L 3.4375 -3.5625 C 3.4375 -3.8125 3.375 -4.007812 3.25 -4.15625 C 3.125 -4.3125 2.925781 -4.390625 2.65625 -4.390625 C 2.414062 -4.390625 2.222656 -4.328125 2.078125 -4.203125 C 1.941406 -4.085938 1.875 -3.929688 1.875 -3.734375 L 0.453125 -3.734375 C 0.453125 -4.046875 0.546875 -4.332031 0.734375 -4.59375 C 0.929688 -4.851562 1.203125 -5.054688 1.546875 -5.203125 C 1.898438 -5.359375 2.289062 -5.4375 2.71875 -5.4375 C 3.382812 -5.4375 3.910156 -5.269531 4.296875 -4.9375 C 4.679688 -4.613281 4.875 -4.148438 4.875 -3.546875 L 4.875 -1.234375 C 4.875 -0.722656 4.941406 -0.335938 5.078125 -0.078125 L 5.078125 0 Z M 2.46875 -0.984375 C 2.675781 -0.984375 2.867188 -1.03125 3.046875 -1.125 C 3.222656 -1.226562 3.351562 -1.359375 3.4375 -1.515625 L 3.4375 -2.421875 L 2.90625 -2.421875 C 2.195312 -2.421875 1.816406 -2.175781 1.765625 -1.6875 L 1.765625 -1.609375 C 1.765625 -1.429688 1.828125 -1.28125 1.953125 -1.15625 C 2.078125 -1.039062 2.25 -0.984375 2.46875 -0.984375 Z M 2.46875 -0.984375 "/></g></g></g><g fill="#d9d9d9" fill-opacity="1"><g transform="translate(137.463544, 35.052109)"><g><path d="M 2.046875 0 L 0.625 0 L 0.625 -7.578125 L 2.046875 -7.578125 Z M 2.046875 0 "/></g></g></g><g fill="#d9d9d9" fill-opacity="1"><g transform="translate(140.143057, 35.052109)"><g/></g></g><g fill="#d9d9d9" fill-opacity="1"><g transform="translate(142.659721, 35.052109)"><g><path d="M 6.546875 -3.4375 C 6.546875 -2.726562 6.421875 -2.101562 6.171875 -1.5625 C 5.921875 -1.03125 5.5625 -0.617188 5.09375 -0.328125 C 4.625 -0.046875 4.09375 0.09375 3.5 0.09375 C 2.894531 0.09375 2.359375 -0.046875 1.890625 -0.328125 C 1.429688 -0.617188 1.070312 -1.03125 0.8125 -1.5625 C 0.550781 -2.09375 0.421875 -2.703125 0.421875 -3.390625 L 0.421875 -3.75 C 0.421875 -4.457031 0.546875 -5.078125 0.796875 -5.609375 C 1.054688 -6.148438 1.421875 -6.5625 1.890625 -6.84375 C 2.359375 -7.132812 2.890625 -7.28125 3.484375 -7.28125 C 4.085938 -7.28125 4.617188 -7.132812 5.078125 -6.84375 C 5.546875 -6.5625 5.90625 -6.148438 6.15625 -5.609375 C 6.414062 -5.078125 6.546875 -4.457031 6.546875 -3.75 Z M 5.046875 -3.75 C 5.046875 -4.507812 4.910156 -5.082031 4.640625 -5.46875 C 4.367188 -5.863281 3.984375 -6.0625 3.484375 -6.0625 C 2.984375 -6.0625 2.597656 -5.867188 2.328125 -5.484375 C 2.066406 -5.097656 1.929688 -4.53125 1.921875 -3.78125 L 1.921875 -3.4375 C 1.921875 -2.695312 2.054688 -2.125 2.328125 -1.71875 C 2.597656 -1.3125 2.988281 -1.109375 3.5 -1.109375 C 3.988281 -1.109375 4.367188 -1.300781 4.640625 -1.6875 C 4.910156 -2.082031 5.046875 -2.65625 5.046875 -3.40625 Z M 5.046875 -3.75 "/></g></g></g><g fill="#d9d9d9" fill-opacity="1"><g transform="translate(149.637296, 35.052109)"><g><path d="M 1.859375 -5.34375 L 1.90625 -4.71875 C 2.289062 -5.195312 2.800781 -5.4375 3.4375 -5.4375 C 4.007812 -5.4375 4.429688 -5.269531 4.703125 -4.9375 C 4.984375 -4.601562 5.125 -4.109375 5.125 -3.453125 L 5.125 0 L 3.703125 0 L 3.703125 -3.421875 C 3.703125 -3.722656 3.632812 -3.941406 3.5 -4.078125 C 3.375 -4.210938 3.15625 -4.28125 2.84375 -4.28125 C 2.445312 -4.28125 2.144531 -4.109375 1.9375 -3.765625 L 1.9375 0 L 0.515625 0 L 0.515625 -5.34375 Z M 1.859375 -5.34375 "/></g></g></g><g fill="#d9d9d9" fill-opacity="1"><g transform="translate(155.297329, 35.052109)"><g><path d="M 2.046875 0 L 0.625 0 L 0.625 -7.578125 L 2.046875 -7.578125 Z M 2.046875 0 "/></g></g></g><g fill="#d9d9d9" fill-opacity="1"><g transform="translate(157.976842, 35.052109)"><g><path d="M 2.046875 0 L 0.625 0 L 0.625 -5.34375 L 2.046875 -5.34375 Z M 0.53125 -6.71875 C 0.53125 -6.9375 0.601562 -7.113281 0.75 -7.25 C 0.894531 -7.382812 1.09375 -7.453125 1.34375 -7.453125 C 1.582031 -7.453125 1.773438 -7.382812 1.921875 -7.25 C 2.066406 -7.113281 2.140625 -6.9375 2.140625 -6.71875 C 2.140625 -6.5 2.066406 -6.320312 1.921875 -6.1875 C 1.773438 -6.050781 1.582031 -5.984375 1.34375 -5.984375 C 1.101562 -5.984375 0.90625 -6.050781 0.75 -6.1875 C 0.601562 -6.320312 0.53125 -6.5 0.53125 -6.71875 Z M 0.53125 -6.71875 "/></g></g></g><g fill="#d9d9d9" fill-opacity="1"><g transform="translate(160.656354, 35.052109)"><g><path d="M 1.859375 -5.34375 L 1.90625 -4.71875 C 2.289062 -5.195312 2.800781 -5.4375 3.4375 -5.4375 C 4.007812 -5.4375 4.429688 -5.269531 4.703125 -4.9375 C 4.984375 -4.601562 5.125 -4.109375 5.125 -3.453125 L 5.125 0 L 3.703125 0 L 3.703125 -3.421875 C 3.703125 -3.722656 3.632812 -3.941406 3.5 -4.078125 C 3.375 -4.210938 3.15625 -4.28125 2.84375 -4.28125 C 2.445312 -4.28125 2.144531 -4.109375 1.9375 -3.765625 L 1.9375 0 L 0.515625 0 L 0.515625 -5.34375 Z M 1.859375 -5.34375 "/></g></g></g><g fill="#d9d9d9" fill-opacity="1"><g transform="translate(166.316387, 35.052109)"><g><path d="M 3 0.09375 C 2.21875 0.09375 1.582031 -0.144531 1.09375 -0.625 C 0.601562 -1.101562 0.359375 -1.742188 0.359375 -2.546875 L 0.359375 -2.6875 C 0.359375 -3.21875 0.460938 -3.691406 0.671875 -4.109375 C 0.878906 -4.535156 1.171875 -4.863281 1.546875 -5.09375 C 1.929688 -5.320312 2.363281 -5.4375 2.84375 -5.4375 C 3.570312 -5.4375 4.144531 -5.207031 4.5625 -4.75 C 4.988281 -4.289062 5.203125 -3.632812 5.203125 -2.78125 L 5.203125 -2.203125 L 1.796875 -2.203125 C 1.847656 -1.859375 1.988281 -1.578125 2.21875 -1.359375 C 2.445312 -1.148438 2.738281 -1.046875 3.09375 -1.046875 C 3.644531 -1.046875 4.078125 -1.25 4.390625 -1.65625 L 5.09375 -0.859375 C 4.875 -0.554688 4.582031 -0.320312 4.21875 -0.15625 C 3.851562 0.0078125 3.445312 0.09375 3 0.09375 Z M 2.84375 -4.28125 C 2.5625 -4.28125 2.332031 -4.1875 2.15625 -4 C 1.976562 -3.8125 1.863281 -3.535156 1.8125 -3.171875 L 3.796875 -3.171875 L 3.796875 -3.296875 C 3.796875 -3.609375 3.710938 -3.847656 3.546875 -4.015625 C 3.378906 -4.191406 3.144531 -4.28125 2.84375 -4.28125 Z M 2.84375 -4.28125 "/></g></g></g><g fill="#d9d9d9" fill-opacity="1"><g transform="translate(171.779034, 35.052109)"><g/></g></g><g fill="#d9d9d9" fill-opacity="1"><g transform="translate(174.295699, 35.052109)"><g><path d="M 3.296875 -2.625 L 2.125 -2.625 L 2.125 0 L 0.640625 0 L 0.640625 -7.1875 L 3.3125 -7.1875 C 4.15625 -7.1875 4.804688 -6.992188 5.265625 -6.609375 C 5.734375 -6.234375 5.96875 -5.703125 5.96875 -5.015625 C 5.96875 -4.523438 5.859375 -4.113281 5.640625 -3.78125 C 5.429688 -3.457031 5.113281 -3.195312 4.6875 -3 L 6.234375 -0.0625 L 6.234375 0 L 4.65625 0 Z M 2.125 -3.828125 L 3.3125 -3.828125 C 3.6875 -3.828125 3.972656 -3.921875 4.171875 -4.109375 C 4.378906 -4.296875 4.484375 -4.554688 4.484375 -4.890625 C 4.484375 -5.234375 4.382812 -5.5 4.1875 -5.6875 C 4 -5.882812 3.707031 -5.984375 3.3125 -5.984375 L 2.125 -5.984375 Z M 2.125 -3.828125 "/></g></g></g><g fill="#d9d9d9" fill-opacity="1"><g transform="translate(180.745273, 35.052109)"><g><path d="M 3 0.09375 C 2.21875 0.09375 1.582031 -0.144531 1.09375 -0.625 C 0.601562 -1.101562 0.359375 -1.742188 0.359375 -2.546875 L 0.359375 -2.6875 C 0.359375 -3.21875 0.460938 -3.691406 0.671875 -4.109375 C 0.878906 -4.535156 1.171875 -4.863281 1.546875 -5.09375 C 1.929688 -5.320312 2.363281 -5.4375 2.84375 -5.4375 C 3.570312 -5.4375 4.144531 -5.207031 4.5625 -4.75 C 4.988281 -4.289062 5.203125 -3.632812 5.203125 -2.78125 L 5.203125 -2.203125 L 1.796875 -2.203125 C 1.847656 -1.859375 1.988281 -1.578125 2.21875 -1.359375 C 2.445312 -1.148438 2.738281 -1.046875 3.09375 -1.046875 C 3.644531 -1.046875 4.078125 -1.25 4.390625 -1.65625 L 5.09375 -0.859375 C 4.875 -0.554688 4.582031 -0.320312 4.21875 -0.15625 C 3.851562 0.0078125 3.445312 0.09375 3 0.09375 Z M 2.84375 -4.28125 C 2.5625 -4.28125 2.332031 -4.1875 2.15625 -4 C 1.976562 -3.8125 1.863281 -3.535156 1.8125 -3.171875 L 3.796875 -3.171875 L 3.796875 -3.296875 C 3.796875 -3.609375 3.710938 -3.847656 3.546875 -4.015625 C 3.378906 -4.191406 3.144531 -4.28125 2.84375 -4.28125 Z M 2.84375 -4.28125 "/></g></g></g><g fill="#d9d9d9" fill-opacity="1"><g transform="translate(186.20792, 35.052109)"><g><path d="M 3.4375 -1.46875 C 3.4375 -1.644531 3.347656 -1.78125 3.171875 -1.875 C 3.003906 -1.976562 2.726562 -2.070312 2.34375 -2.15625 C 1.070312 -2.425781 0.4375 -2.96875 0.4375 -3.78125 C 0.4375 -4.25 0.632812 -4.640625 1.03125 -4.953125 C 1.425781 -5.273438 1.941406 -5.4375 2.578125 -5.4375 C 3.253906 -5.4375 3.796875 -5.273438 4.203125 -4.953125 C 4.609375 -4.640625 4.8125 -4.226562 4.8125 -3.71875 L 3.390625 -3.71875 C 3.390625 -3.914062 3.320312 -4.082031 3.1875 -4.21875 C 3.050781 -4.351562 2.847656 -4.421875 2.578125 -4.421875 C 2.335938 -4.421875 2.148438 -4.363281 2.015625 -4.25 C 1.878906 -4.144531 1.8125 -4.007812 1.8125 -3.84375 C 1.8125 -3.6875 1.882812 -3.554688 2.03125 -3.453125 C 2.1875 -3.359375 2.441406 -3.273438 2.796875 -3.203125 C 3.148438 -3.140625 3.453125 -3.0625 3.703125 -2.96875 C 4.453125 -2.695312 4.828125 -2.21875 4.828125 -1.53125 C 4.828125 -1.039062 4.617188 -0.644531 4.203125 -0.34375 C 3.785156 -0.0507812 3.242188 0.09375 2.578125 0.09375 C 2.128906 0.09375 1.734375 0.015625 1.390625 -0.140625 C 1.046875 -0.296875 0.773438 -0.515625 0.578125 -0.796875 C 0.378906 -1.078125 0.28125 -1.378906 0.28125 -1.703125 L 1.625 -1.703125 C 1.644531 -1.441406 1.738281 -1.242188 1.90625 -1.109375 C 2.082031 -0.972656 2.316406 -0.90625 2.609375 -0.90625 C 2.878906 -0.90625 3.082031 -0.957031 3.21875 -1.0625 C 3.363281 -1.164062 3.4375 -1.300781 3.4375 -1.46875 Z M 3.4375 -1.46875 "/></g></g></g><g fill="#d9d9d9" fill-opacity="1"><g transform="translate(191.404097, 35.052109)"><g><path d="M 0.328125 -2.71875 C 0.328125 -3.25 0.425781 -3.722656 0.625 -4.140625 C 0.832031 -4.554688 1.128906 -4.875 1.515625 -5.09375 C 1.898438 -5.320312 2.34375 -5.4375 2.84375 -5.4375 C 3.5625 -5.4375 4.148438 -5.210938 4.609375 -4.765625 C 5.066406 -4.328125 5.320312 -3.734375 5.375 -2.984375 L 5.390625 -2.609375 C 5.390625 -1.796875 5.160156 -1.140625 4.703125 -0.640625 C 4.242188 -0.148438 3.628906 0.09375 2.859375 0.09375 C 2.085938 0.09375 1.472656 -0.148438 1.015625 -0.640625 C 0.554688 -1.128906 0.328125 -1.800781 0.328125 -2.65625 Z M 1.75 -2.609375 C 1.75 -2.109375 1.84375 -1.722656 2.03125 -1.453125 C 2.226562 -1.179688 2.503906 -1.046875 2.859375 -1.046875 C 3.203125 -1.046875 3.46875 -1.175781 3.65625 -1.4375 C 3.851562 -1.707031 3.953125 -2.132812 3.953125 -2.71875 C 3.953125 -3.21875 3.851562 -3.601562 3.65625 -3.875 C 3.46875 -4.144531 3.195312 -4.28125 2.84375 -4.28125 C 2.5 -4.28125 2.226562 -4.144531 2.03125 -3.875 C 1.84375 -3.601562 1.75 -3.179688 1.75 -2.609375 Z M 1.75 -2.609375 "/></g></g></g><g fill="#d9d9d9" fill-opacity="1"><g transform="translate(197.118405, 35.052109)"><g><path d="M 3.75 -0.546875 C 3.394531 -0.117188 2.90625 0.09375 2.28125 0.09375 C 1.707031 0.09375 1.269531 -0.0664062 0.96875 -0.390625 C 0.664062 -0.722656 0.515625 -1.207031 0.515625 -1.84375 L 0.515625 -5.34375 L 1.9375 -5.34375 L 1.9375 -1.890625 C 1.9375 -1.335938 2.191406 -1.0625 2.703125 -1.0625 C 3.179688 -1.0625 3.515625 -1.226562 3.703125 -1.5625 L 3.703125 -5.34375 L 5.125 -5.34375 L 5.125 0 L 3.78125 0 Z M 3.75 -0.546875 "/></g></g></g><g fill="#d9d9d9" fill-opacity="1"><g transform="translate(202.773497, 35.052109)"><g><path d="M 3.546875 -4 C 3.359375 -4.03125 3.1875 -4.046875 3.03125 -4.046875 C 2.488281 -4.046875 2.132812 -3.863281 1.96875 -3.5 L 1.96875 0 L 0.546875 0 L 0.546875 -5.34375 L 1.890625 -5.34375 L 1.9375 -4.703125 C 2.21875 -5.191406 2.613281 -5.4375 3.125 -5.4375 C 3.28125 -5.4375 3.425781 -5.414062 3.5625 -5.375 Z M 3.546875 -4 "/></g></g></g><g fill="#d9d9d9" fill-opacity="1"><g transform="translate(206.459676, 35.052109)"><g><path d="M 2.765625 -1.046875 C 3.035156 -1.046875 3.25 -1.117188 3.40625 -1.265625 C 3.570312 -1.410156 3.660156 -1.601562 3.671875 -1.84375 L 5 -1.84375 C 5 -1.476562 4.898438 -1.144531 4.703125 -0.84375 C 4.515625 -0.550781 4.25 -0.320312 3.90625 -0.15625 C 3.570312 0.0078125 3.203125 0.09375 2.796875 0.09375 C 2.035156 0.09375 1.429688 -0.144531 0.984375 -0.625 C 0.546875 -1.113281 0.328125 -1.785156 0.328125 -2.640625 L 0.328125 -2.734375 C 0.328125 -3.554688 0.546875 -4.210938 0.984375 -4.703125 C 1.421875 -5.191406 2.019531 -5.4375 2.78125 -5.4375 C 3.445312 -5.4375 3.984375 -5.242188 4.390625 -4.859375 C 4.796875 -4.484375 5 -3.984375 5 -3.359375 L 3.671875 -3.359375 C 3.660156 -3.628906 3.570312 -3.847656 3.40625 -4.015625 C 3.25 -4.191406 3.035156 -4.28125 2.765625 -4.28125 C 2.429688 -4.28125 2.175781 -4.160156 2 -3.921875 C 1.832031 -3.679688 1.75 -3.289062 1.75 -2.75 L 1.75 -2.59375 C 1.75 -2.039062 1.832031 -1.644531 2 -1.40625 C 2.164062 -1.164062 2.421875 -1.046875 2.765625 -1.046875 Z M 2.765625 -1.046875 "/></g></g></g><g fill="#d9d9d9" fill-opacity="1"><g transform="translate(211.729867, 35.052109)"><g><path d="M 3 0.09375 C 2.21875 0.09375 1.582031 -0.144531 1.09375 -0.625 C 0.601562 -1.101562 0.359375 -1.742188 0.359375 -2.546875 L 0.359375 -2.6875 C 0.359375 -3.21875 0.460938 -3.691406 0.671875 -4.109375 C 0.878906 -4.535156 1.171875 -4.863281 1.546875 -5.09375 C 1.929688 -5.320312 2.363281 -5.4375 2.84375 -5.4375 C 3.570312 -5.4375 4.144531 -5.207031 4.5625 -4.75 C 4.988281 -4.289062 5.203125 -3.632812 5.203125 -2.78125 L 5.203125 -2.203125 L 1.796875 -2.203125 C 1.847656 -1.859375 1.988281 -1.578125 2.21875 -1.359375 C 2.445312 -1.148438 2.738281 -1.046875 3.09375 -1.046875 C 3.644531 -1.046875 4.078125 -1.25 4.390625 -1.65625 L 5.09375 -0.859375 C 4.875 -0.554688 4.582031 -0.320312 4.21875 -0.15625 C 3.851562 0.0078125 3.445312 0.09375 3 0.09375 Z M 2.84375 -4.28125 C 2.5625 -4.28125 2.332031 -4.1875 2.15625 -4 C 1.976562 -3.8125 1.863281 -3.535156 1.8125 -3.171875 L 3.796875 -3.171875 L 3.796875 -3.296875 C 3.796875 -3.609375 3.710938 -3.847656 3.546875 -4.015625 C 3.378906 -4.191406 3.144531 -4.28125 2.84375 -4.28125 Z M 2.84375 -4.28125 "/></g></g></g></svg>