<svg xmlns="http://www.w3.org/2000/svg" xmlns:xlink="http://www.w3.org/1999/xlink" width="512" zoomAndPan="magnify" viewBox="0 0 384 383.999986" height="512" preserveAspectRatio="xMidYMid meet" version="1.0"><defs><clipPath id="085f80bfd9"><path d="M 143 54 L 239 54 L 239 329 L 143 329 Z M 143 54 " clip-rule="nonzero"/></clipPath></defs><rect x="-38.4" width="460.8" fill="#ffffff" y="-38.399999" height="460.799983" fill-opacity="1"/><rect x="-38.4" width="460.8" fill="#ffffff" y="-38.399999" height="460.799983" fill-opacity="1"/><g clip-path="url(#085f80bfd9)"><path fill="#a60202" d="M 203.21875 89.539062 L 238.539062 89.539062 L 238.539062 114.144531 L 203.21875 114.144531 L 203.21875 161.191406 C 201.125 158.96875 198.460938 157.222656 195.347656 156.097656 C 190.214844 154.246094 184.332031 154.332031 179.378906 156.703125 C 179.121094 156.832031 178.859375 156.964844 178.613281 157.097656 L 178.613281 114.144531 L 143.292969 114.144531 L 143.292969 89.539062 L 178.613281 89.539062 L 178.613281 53.972656 L 203.21875 53.972656 Z M 203.21875 317.898438 L 203.21875 328.082031 L 178.613281 328.082031 L 178.613281 301.109375 C 185.890625 307.773438 194.246094 313.425781 203.21875 317.898438 " fill-opacity="1" fill-rule="evenodd"/></g><path fill="#ffffff" d="M 362.851562 200.589844 C 362.832031 200.5 362.816406 200.40625 362.804688 200.316406 C 361.765625 192.519531 361.453125 184.59375 361.34375 176.730469 C 361.234375 168.972656 361.363281 161.21875 361.296875 153.460938 C 361.261719 149.652344 361.203125 145.757812 360.964844 141.886719 C 353.214844 146.097656 343.640625 147.921875 335.328125 149.066406 L 335.328125 123.042969 C 344.308594 120.308594 353.859375 116.195312 359.957031 109.078125 C 363.640625 104.777344 365.738281 99.796875 366.652344 94.230469 C 367.019531 91.984375 368.859375 90.34375 371.140625 90.238281 C 373.417969 90.136719 375.398438 91.597656 375.972656 93.804688 C 377.886719 101.183594 378.082031 110.257812 378.054688 117.859375 C 378.011719 128.027344 377.378906 138.257812 376.605469 148.390625 C 375.855469 158.179688 374.925781 167.957031 374.023438 177.738281 C 373.347656 185.066406 372.59375 192.527344 372.296875 199.878906 C 372.261719 200.71875 372.015625 201.496094 371.605469 202.167969 C 374.632812 214.023438 374.554688 226.445312 367.285156 236.804688 C 366.992188 237.222656 366.6875 237.628906 366.382812 238.035156 C 367.484375 238.828125 368.207031 240.074219 368.324219 241.519531 C 368.960938 249.476562 367.464844 257.210938 362.511719 263.632812 C 356.050781 272.011719 345.410156 275.972656 335.328125 278.058594 L 335.328125 256.339844 C 338.535156 255.457031 341.613281 254.394531 344.457031 253.125 C 341.503906 254.28125 338.445312 255.285156 335.328125 256.167969 L 335.328125 231.589844 C 343.46875 228.171875 350.773438 223.625 355.675781 217.398438 C 359.183594 212.945312 361.300781 207.90625 362.21875 202.316406 C 362.320312 201.6875 362.539062 201.105469 362.851562 200.589844 Z M 335.328125 149.066406 L 334.589844 149.167969 C 320.027344 151.113281 305.285156 151.652344 290.695312 153.542969 C 255.28125 158.140625 227.96875 169.59375 221.699219 208.535156 C 221.304688 210.953125 219.179688 212.671875 216.730469 212.539062 C 216.519531 212.523438 216.316406 212.5 216.113281 212.464844 C 215.257812 212.855469 214.285156 212.988281 213.289062 212.816406 C 206.199219 211.578125 198.710938 212.457031 192.386719 216.015625 C 183.019531 221.277344 178.640625 230.832031 178.015625 241.265625 C 177.046875 257.496094 183.722656 274.621094 193.59375 287.273438 C 208.601562 306.523438 230.785156 316.695312 254.507812 320.421875 C 256.972656 320.808594 258.710938 323.007812 258.519531 325.488281 C 258.335938 327.976562 256.28125 329.890625 253.785156 329.898438 C 243.113281 329.941406 232.414062 328.347656 222.175781 325.34375 C 183.636719 314.042969 149.925781 282.054688 151.101562 239.632812 C 151.234375 234.738281 151.925781 229.914062 153.003906 225.140625 C 154.132812 220.1875 155.667969 215.347656 157.332031 210.550781 C 156.917969 209.972656 156.628906 209.285156 156.503906 208.535156 C 153.785156 191.652344 146.726562 177.40625 132.285156 167.71875 C 119.308594 159.011719 102.773438 155.519531 87.511719 153.542969 C 72.914062 151.652344 58.171875 151.113281 43.617188 149.167969 L 42.871094 149.066406 L 42.871094 123.042969 C 43.890625 123.351562 44.902344 123.648438 45.910156 123.921875 C 59.078125 127.578125 73.011719 129.507812 86.472656 131.917969 C 107.367188 135.65625 131.828125 140.816406 147.890625 155.660156 C 157.761719 164.78125 162.925781 176.101562 165.003906 188.410156 C 165.785156 185.84375 166.515625 183.261719 167.164062 180.640625 C 167.433594 179.535156 168.148438 176.398438 167.421875 175.3125 C 166.808594 174.394531 164.542969 173.410156 163.578125 172.992188 C 161.96875 172.304688 160.929688 170.917969 160.71875 169.179688 C 160.515625 167.449219 161.191406 165.855469 162.59375 164.804688 C 166.546875 161.824219 170.242188 160.253906 174.945312 159.734375 C 176.257812 158.503906 177.753906 157.488281 179.378906 156.703125 C 184.332031 154.332031 190.214844 154.246094 195.347656 156.097656 C 203.257812 158.953125 208.316406 165.871094 208.324219 174.34375 C 208.324219 180.972656 209.558594 188.921875 212.320312 195.773438 C 213.421875 180.632812 218.5 166.574219 230.308594 155.660156 C 246.371094 140.816406 270.832031 135.65625 291.730469 131.917969 C 305.191406 129.507812 319.121094 127.578125 332.292969 123.921875 C 333.292969 123.648438 334.308594 123.351562 335.328125 123.042969 Z M 42.871094 231.589844 L 42.871094 256.167969 C 45.882812 257.019531 48.945312 257.75 51.996094 258.386719 C 48.90625 257.832031 45.835938 257.160156 42.871094 256.339844 L 42.871094 278.058594 L 43.992188 278.285156 C 56.234375 280.667969 69.429688 280.921875 81.878906 280.800781 C 89.3125 280.734375 96.738281 280.488281 104.171875 280.296875 C 110.707031 280.125 117.296875 279.964844 123.839844 280.152344 C 127.644531 280.261719 141.570312 280.800781 143.890625 284.492188 C 145.085938 286.382812 147.339844 287.1875 149.453125 286.472656 C 151.570312 285.761719 152.878906 283.75 152.679688 281.527344 C 152.523438 279.832031 152.109375 278.199219 151.40625 276.664062 C 151.773438 276.082031 152.023438 275.414062 152.109375 274.6875 C 152.570312 271.023438 152.132812 267.386719 150.503906 264.042969 C 145.621094 254.019531 131.640625 250.148438 121.644531 247.9375 C 114.664062 246.394531 107.542969 245.289062 100.476562 244.226562 C 92.835938 243.082031 85.1875 241.996094 77.574219 240.6875 C 67.230469 238.90625 54.238281 236.355469 42.871094 231.589844 Z M 335.328125 278.058594 L 335.328125 256.339844 C 332.367188 257.160156 329.296875 257.832031 326.207031 258.386719 C 329.257812 257.75 332.316406 257.019531 335.328125 256.167969 L 335.328125 231.589844 C 323.960938 236.355469 310.964844 238.90625 300.632812 240.6875 C 293.015625 241.996094 285.367188 243.082031 277.722656 244.226562 C 270.652344 245.289062 263.539062 246.394531 256.5625 247.9375 C 246.5625 250.148438 232.582031 254.019531 227.699219 264.042969 C 226.074219 267.386719 225.632812 271.023438 226.089844 274.6875 C 226.179688 275.414062 226.429688 276.082031 226.800781 276.664062 C 226.09375 278.199219 225.675781 279.832031 225.523438 281.527344 C 225.320312 283.75 226.632812 285.761719 228.746094 286.472656 C 230.863281 287.1875 233.121094 286.382812 234.3125 284.492188 C 236.632812 280.800781 250.550781 280.261719 254.363281 280.152344 C 260.90625 279.964844 267.488281 280.125 274.035156 280.296875 C 281.464844 280.488281 288.886719 280.734375 296.324219 280.800781 C 308.777344 280.921875 321.96875 280.667969 334.210938 278.285156 Z M 42.871094 149.066406 C 34.5625 147.921875 24.988281 146.097656 17.234375 141.886719 C 17 145.757812 16.9375 149.652344 16.90625 153.460938 C 16.84375 161.21875 16.96875 168.972656 16.859375 176.730469 C 16.753906 184.59375 16.4375 192.519531 15.398438 200.316406 C 15.386719 200.40625 15.371094 200.5 15.351562 200.589844 C 15.664062 201.105469 15.882812 201.6875 15.984375 202.316406 C 16.902344 207.90625 19.015625 212.945312 22.523438 217.398438 C 27.429688 223.625 34.734375 228.171875 42.871094 231.589844 L 42.871094 256.167969 C 39.757812 255.285156 36.695312 254.28125 33.742188 253.125 C 36.582031 254.394531 39.664062 255.453125 42.871094 256.339844 L 42.871094 278.058594 C 32.792969 275.972656 22.152344 272.011719 15.691406 263.632812 C 10.734375 257.210938 9.242188 249.476562 9.882812 241.519531 C 10 240.074219 10.726562 238.828125 11.820312 238.035156 C 11.511719 237.628906 11.207031 237.222656 10.917969 236.804688 C 3.648438 226.445312 3.574219 214.023438 6.59375 202.167969 C 6.1875 201.496094 5.945312 200.71875 5.90625 199.878906 C 5.609375 192.527344 4.851562 185.066406 4.179688 177.738281 C 3.277344 167.957031 2.351562 158.179688 1.601562 148.390625 C 0.824219 138.257812 0.191406 128.027344 0.148438 117.859375 C 0.117188 110.257812 0.320312 101.183594 2.234375 93.804688 C 2.804688 91.597656 4.789062 90.136719 7.0625 90.238281 C 9.34375 90.34375 11.179688 91.984375 11.550781 94.230469 C 12.46875 99.796875 14.5625 104.777344 18.246094 109.078125 C 24.347656 116.195312 33.890625 120.308594 42.871094 123.042969 L 42.871094 149.066406 " fill-opacity="1" fill-rule="evenodd"/><path fill="#a60202" d="M 363.570312 241.898438 C 348.539062 275.117188 271.761719 261.425781 242.019531 270.84375 L 242.019531 276.414062 C 276.304688 270.738281 367.546875 291.367188 363.570312 241.898438 Z M 242.019531 324.492188 L 242.019531 322.730469 C 245.757812 323.679688 249.667969 324.488281 253.765625 325.128906 C 249.859375 325.148438 245.933594 324.929688 242.019531 324.492188 Z M 242.019531 265.011719 L 242.019531 257.496094 C 273.261719 242.835938 358.890625 252.007812 366.925781 203.09375 C 383.828125 268.238281 277.804688 252.769531 242.019531 265.011719 Z M 242.019531 164.617188 L 242.019531 152.738281 C 283.773438 126.507812 363.574219 142.441406 371.355469 95.003906 C 377.042969 116.917969 368.449219 177.105469 367.53125 199.6875 C 364.582031 177.523438 367.464844 150.839844 364.886719 133.191406 C 344.136719 153.808594 279.042969 138.457031 242.019531 164.617188 Z M 242.019531 270.84375 C 235.136719 273.023438 230.773438 276.433594 230.273438 281.957031 C 232.09375 279.058594 236.257812 277.367188 242.019531 276.414062 Z M 242.019531 152.738281 L 242.019531 164.617188 C 229.621094 173.375 220.371094 186.792969 216.988281 207.773438 C 215.507812 179.167969 225.949219 162.835938 242.019531 152.738281 Z M 242.019531 257.496094 L 242.019531 265.011719 C 235.984375 267.074219 231.933594 269.925781 230.820312 274.09375 C 229.835938 266.246094 234.253906 261.132812 242.019531 257.496094 Z M 242.019531 322.730469 L 242.019531 324.492188 C 204.671875 320.332031 168.628906 296.046875 158.597656 261.273438 L 158.597656 222.433594 C 162.054688 209.648438 167.992188 197.203125 171.792969 181.78125 C 173.835938 173.496094 171.421875 171.175781 165.457031 168.613281 C 168.980469 165.964844 172.167969 164.582031 177.144531 164.339844 C 184.828125 155.085938 203.546875 159.78125 203.550781 174.347656 C 203.5625 186.117188 206.988281 199.816406 214.113281 208.121094 C 194.1875 204.640625 174.738281 216.265625 173.253906 240.980469 C 171.65625 267.785156 189.667969 309.449219 242.019531 322.730469 Z M 158.597656 196.398438 C 159.675781 199.921875 160.558594 203.703125 161.214844 207.773438 C 161.734375 197.691406 160.753906 189.152344 158.597656 181.851562 Z M 158.597656 181.851562 L 158.597656 196.398438 C 146.96875 158.414062 111.960938 151.070312 78.492188 147.722656 L 78.492188 135.359375 C 112.851562 141.285156 148.59375 148.105469 158.597656 181.851562 Z M 158.597656 222.433594 L 158.597656 261.273438 C 156.636719 254.480469 155.660156 247.289062 155.867188 239.765625 C 156.039062 233.734375 157.074219 228.050781 158.597656 222.433594 Z M 78.492188 276.054688 L 78.492188 265.851562 C 112.230469 267.652344 146.476562 265.878906 147.929688 281.957031 C 141.84375 272.269531 109.703125 276 78.492188 276.054688 Z M 78.492188 257.425781 C 111.171875 260.84375 143.875 260.941406 147.378906 274.09375 C 150.015625 253.121094 114.144531 251.65625 78.492188 245.675781 Z M 78.492188 135.359375 L 78.492188 147.722656 C 51.304688 145.007812 25.128906 144.925781 13.316406 133.191406 C 10.738281 150.839844 13.621094 177.523438 10.671875 199.6875 C 9.753906 177.105469 1.160156 116.917969 6.847656 95.003906 C 11.6875 124.511719 44.40625 129.496094 78.492188 135.359375 Z M 78.492188 245.675781 L 78.492188 257.425781 C 39.5 253.339844 0.535156 244.515625 11.28125 203.09375 C 15.96875 231.667969 47.148438 240.417969 78.492188 245.675781 Z M 78.492188 265.851562 C 50.582031 264.359375 23.011719 260.421875 14.636719 241.898438 C 12.21875 271.886719 44.8125 276.113281 78.492188 276.054688 L 78.492188 265.851562 " fill-opacity="1" fill-rule="nonzero"/></svg>